<svg xmlns="http://www.w3.org/2000/svg" width="256" height="241" viewBox="0 0 256 241" xml:space="preserve"><path d="M2 2.375v236.25h252V2.375zm129.938 11.813h51.188v102.747l-12.534 14.623s-20.587-4.061-38.654-7.683zM72.875 117.589c4.811 2.189 9.56 4.106 11.142 4.696-5.777 3.888-9.905 10.028-11.142 17.161zM65 218.973a12.6 12.6 0 0 0-4.531-.847h-2.418l-1.286-12.176L65 200.729zm0-115.527a50 50 0 0 1-2.247-1.61C52.03 93.647 46.567 83.214 46.51 70.826c.069-10.5 8.194-19.112 18.49-19.981zm0-61.283c-13.134.809-24.314 10.855-26.737 23.929-2.694 14.547 4.519 34.987 26.516 47.469.07.04.149.081.221.122v70.576l-17.225 11.088a5.77 5.77 0 0 0-2.571 5.784l4.191 25.652-35.583.029V14.188H65zm7.875 153.572 20.604-13.065c-6.039-4.341-11.536-9.285-16.124-14.477l-.752 6.997a3.61 3.61 0 0 1-1.639 2.656l-2.089 1.345v-30.738c.56 3.28 1.714 6.355 3.432 9.057 7.896 12.418 24.281 23.086 24.281 23.086l.027.019-13.706 37.513 8.687 8.685h-22.72v-31.078zm51.188 31.078h-8.287c-1.786-5.06-6.646-8.687-12.021-8.687h-3.861l20.054-34.76a5.77 5.77 0 0 0 .11-5.567l-9.182-17.488s4.631 5.19 13.187 9.793zm0-104.523c-8.218-1.659-15.003-3.053-17.646-3.652-13.127-2.978-24.414-6.241-33.542-10.683V51.729c8.131 2.613 14.034 10.241 14.034 19.229 0 2.391 1.937 4.328 4.328 4.328s4.328-1.937 4.328-4.328c-.001-13.793-9.733-25.351-22.691-28.184V14.188h51.188zm7.875 51.334a57.5 57.5 0 0 0 13.451 3.11l-9.424 41.391 5.792 8.687h-9.819zM191 226.813v-6.702l5.585 6.702zm51.188 0h-31.197c-1.852-3.645-5.157-6.597-9.042-7.867l-2.502-.818-9.378-32.464-2.036-14.152a63.5 63.5 0 0 1-14.462 7.532l1.35 6.62 8.206 18.463v22.685H156.13c-1.874-3.666-4.983-6.751-8.745-8.422l-.596-.265 12.986-32.464 10.791-11.682c13.565-4.693 24.833-14.299 31.641-26.211l9.189-3.676a5.77 5.77 0 0 0 3.331-3.533l1.643-4.93a1.445 1.445 0 0 0-.726-1.746l-4.651-2.327v-4.328l2.886-4.328-21.06-9.36a7.2 7.2 0 0 0-1.816-.514V14.188h51.188v212.625z"/></svg>